<mxfile host="app.diagrams.net" modified="2020-10-17T11:56:14.578Z" agent="5.0 (Windows NT 10.0; WOW64) AppleWebKit/537.36 (KHTML, like Gecko) Chrome/86.0.4240.75 Safari/537.36" etag="IlPBbp0sK1ehSefsIz0t" version="13.8.0" type="github">
  <diagram id="pwO4rQPGBJkzqjzFGWmT" name="Page-1">
    <mxGraphModel dx="599" dy="293" grid="1" gridSize="10" guides="1" tooltips="1" connect="1" arrows="1" fold="1" page="1" pageScale="1" pageWidth="827" pageHeight="1169" math="0" shadow="0">
      <root>
        <mxCell id="0" />
        <mxCell id="1" parent="0" />
        <mxCell id="pYifvQT2HWXIfOrz_YcY-4" value="&lt;font size=&quot;1&quot;&gt;&lt;b style=&quot;font-size: 9px&quot;&gt;ROMS (7 days hindcast)&lt;/b&gt;&lt;/font&gt;" style="rounded=0;whiteSpace=wrap;html=1;fillColor=#eeeeee;strokeColor=#36393d;verticalAlign=middle;" parent="1" vertex="1">
          <mxGeometry x="280" y="140" width="130" height="20" as="geometry" />
        </mxCell>
        <mxCell id="pYifvQT2HWXIfOrz_YcY-7" value="&lt;font size=&quot;1&quot;&gt;&lt;b style=&quot;font-size: 9px&quot;&gt;ROMS (7 days forecast)&lt;/b&gt;&lt;/font&gt;" style="rounded=0;whiteSpace=wrap;html=1;verticalAlign=middle;dashed=1;" parent="1" vertex="1">
          <mxGeometry x="410" y="160" width="130" height="20" as="geometry" />
        </mxCell>
        <mxCell id="pYifvQT2HWXIfOrz_YcY-8" value="&lt;font size=&quot;1&quot;&gt;&lt;b style=&quot;font-size: 9px&quot;&gt;ROMS (7 days forecast)&lt;/b&gt;&lt;/font&gt;" style="rounded=0;whiteSpace=wrap;html=1;verticalAlign=middle;dashed=1;" parent="1" vertex="1">
          <mxGeometry x="430" y="180" width="130" height="20" as="geometry" />
        </mxCell>
        <mxCell id="pYifvQT2HWXIfOrz_YcY-9" value="&lt;font size=&quot;1&quot;&gt;&lt;b style=&quot;font-size: 9px&quot;&gt;ROMS (7 days forecast)&lt;/b&gt;&lt;/font&gt;" style="rounded=0;whiteSpace=wrap;html=1;verticalAlign=middle;dashed=1;" parent="1" vertex="1">
          <mxGeometry x="450" y="200" width="130" height="20" as="geometry" />
        </mxCell>
        <mxCell id="pYifvQT2HWXIfOrz_YcY-10" value="&lt;font size=&quot;1&quot;&gt;&lt;b style=&quot;font-size: 9px&quot;&gt;ROMS (7 days forecast)&lt;/b&gt;&lt;/font&gt;" style="rounded=0;whiteSpace=wrap;html=1;verticalAlign=middle;dashed=1;" parent="1" vertex="1">
          <mxGeometry x="470" y="220" width="130" height="20" as="geometry" />
        </mxCell>
        <mxCell id="30RJS0q0PBS2WoNAkkCa-1" value="&lt;font size=&quot;1&quot;&gt;&lt;b style=&quot;font-size: 9px&quot;&gt;ROMS (7 days forecast)&lt;/b&gt;&lt;/font&gt;" style="rounded=0;whiteSpace=wrap;html=1;verticalAlign=middle;dashed=1;" parent="1" vertex="1">
          <mxGeometry x="490" y="240" width="130" height="20" as="geometry" />
        </mxCell>
        <mxCell id="30RJS0q0PBS2WoNAkkCa-2" value="&lt;font size=&quot;1&quot;&gt;&lt;b style=&quot;font-size: 9px&quot;&gt;ROMS (7 days forecast)&lt;/b&gt;&lt;/font&gt;" style="rounded=0;whiteSpace=wrap;html=1;verticalAlign=middle;dashed=1;" parent="1" vertex="1">
          <mxGeometry x="510" y="260" width="130" height="20" as="geometry" />
        </mxCell>
        <mxCell id="30RJS0q0PBS2WoNAkkCa-7" value="" style="strokeWidth=1;html=1;shape=mxgraph.flowchart.annotation_2;align=left;labelPosition=right;pointerEvents=1;rotation=90;" parent="1" vertex="1">
          <mxGeometry x="401" y="110" width="36" height="20" as="geometry" />
        </mxCell>
        <mxCell id="30RJS0q0PBS2WoNAkkCa-9" value="&lt;b&gt;&lt;font style=&quot;font-size: 9px&quot;&gt;1 day&lt;/font&gt;&lt;/b&gt;" style="text;html=1;align=center;verticalAlign=bottom;whiteSpace=wrap;rounded=0;perimeterSpacing=0;fontColor=#333333;fillColor=#CCCCCC;" parent="1" vertex="1">
          <mxGeometry x="399" y="80" width="38" height="20" as="geometry" />
        </mxCell>
        <mxCell id="I8OCzsZrOeZ4LIsiNRNC-1" value="&lt;font size=&quot;1&quot;&gt;&lt;b style=&quot;font-size: 11px&quot;&gt;Mercator (hindcast + forecast)&amp;nbsp;&lt;/b&gt;&lt;/font&gt;" style="rounded=0;whiteSpace=wrap;html=1;fillColor=#eeeeee;strokeColor=#36393d;verticalAlign=middle;dashed=1;" parent="1" vertex="1">
          <mxGeometry x="280" y="300" width="400" height="20" as="geometry" />
        </mxCell>
        <mxCell id="I8OCzsZrOeZ4LIsiNRNC-2" value="&lt;font size=&quot;1&quot;&gt;&lt;b style=&quot;font-size: 11px&quot;&gt;GFS&amp;nbsp;&lt;/b&gt;&lt;/font&gt;&lt;b style=&quot;font-size: 11px&quot;&gt;(&lt;/b&gt;&lt;b style=&quot;font-size: 11px&quot;&gt;hindcast + forecast&lt;/b&gt;&lt;b style=&quot;font-size: 11px&quot;&gt;)&lt;/b&gt;" style="rounded=0;whiteSpace=wrap;html=1;fillColor=#eeeeee;strokeColor=#36393d;verticalAlign=middle;dashed=1;" parent="1" vertex="1">
          <mxGeometry x="280" y="330" width="400" height="20" as="geometry" />
        </mxCell>
        <mxCell id="CNHs0crCZYIP-Z3c3alA-3" value="&lt;font size=&quot;1&quot;&gt;&lt;b&gt;2DA&lt;/b&gt;&lt;/font&gt;" style="rounded=0;whiteSpace=wrap;html=1;fillColor=#eeeeee;strokeColor=#36393d;verticalAlign=middle;" parent="1" vertex="1">
          <mxGeometry x="370" y="160" width="40" height="20" as="geometry" />
        </mxCell>
        <mxCell id="CNHs0crCZYIP-Z3c3alA-4" value="&lt;font size=&quot;1&quot;&gt;&lt;b&gt;2DA&lt;/b&gt;&lt;/font&gt;" style="rounded=0;whiteSpace=wrap;html=1;fillColor=#eeeeee;strokeColor=#36393d;verticalAlign=middle;" parent="1" vertex="1">
          <mxGeometry x="390" y="180" width="40" height="20" as="geometry" />
        </mxCell>
        <mxCell id="CNHs0crCZYIP-Z3c3alA-5" value="&lt;font size=&quot;1&quot;&gt;&lt;b&gt;2DA&lt;/b&gt;&lt;/font&gt;" style="rounded=0;whiteSpace=wrap;html=1;fillColor=#eeeeee;strokeColor=#36393d;verticalAlign=middle;" parent="1" vertex="1">
          <mxGeometry x="410" y="200" width="40" height="20" as="geometry" />
        </mxCell>
        <mxCell id="CNHs0crCZYIP-Z3c3alA-6" value="&lt;font size=&quot;1&quot;&gt;&lt;b&gt;2DA&lt;/b&gt;&lt;/font&gt;" style="rounded=0;whiteSpace=wrap;html=1;fillColor=#eeeeee;strokeColor=#36393d;verticalAlign=middle;" parent="1" vertex="1">
          <mxGeometry x="430" y="220" width="40" height="20" as="geometry" />
        </mxCell>
        <mxCell id="CNHs0crCZYIP-Z3c3alA-7" value="&lt;font size=&quot;1&quot;&gt;&lt;b&gt;2DA&lt;/b&gt;&lt;/font&gt;" style="rounded=0;whiteSpace=wrap;html=1;fillColor=#eeeeee;strokeColor=#36393d;verticalAlign=middle;" parent="1" vertex="1">
          <mxGeometry x="450" y="240" width="40" height="20" as="geometry" />
        </mxCell>
        <mxCell id="CNHs0crCZYIP-Z3c3alA-9" value="&lt;font size=&quot;1&quot;&gt;&lt;b&gt;2DA&lt;/b&gt;&lt;/font&gt;" style="rounded=0;whiteSpace=wrap;html=1;fillColor=#eeeeee;strokeColor=#36393d;verticalAlign=middle;" parent="1" vertex="1">
          <mxGeometry x="470" y="260" width="40" height="20" as="geometry" />
        </mxCell>
        <mxCell id="CNHs0crCZYIP-Z3c3alA-10" value="&lt;font style=&quot;font-size: 24px&quot;&gt;&lt;b&gt;....&lt;/b&gt;&lt;/font&gt;" style="text;html=1;strokeColor=none;fillColor=none;align=center;verticalAlign=middle;whiteSpace=wrap;rounded=0;" parent="1" vertex="1">
          <mxGeometry x="490" y="280" width="40" height="10" as="geometry" />
        </mxCell>
        <mxCell id="CNHs0crCZYIP-Z3c3alA-13" value="&lt;span style=&quot;background-color: rgb(225 , 213 , 231)&quot;&gt;&lt;b style=&quot;font-size: x-small&quot;&gt;2DA -&lt;/b&gt;&lt;span style=&quot;font-size: x-small&quot;&gt;&amp;nbsp;&lt;/span&gt;&lt;b style=&quot;font-size: 8px&quot;&gt;&lt;font style=&quot;font-size: 8px&quot;&gt;&amp;nbsp;2 days assimilation&amp;nbsp; &amp;nbsp; &amp;nbsp; &amp;nbsp;window&lt;/font&gt;&lt;/b&gt;&lt;/span&gt;" style="text;html=1;strokeColor=none;fillColor=none;align=center;verticalAlign=middle;whiteSpace=wrap;rounded=0;" parent="1" vertex="1">
          <mxGeometry x="270" y="220" width="120" height="20" as="geometry" />
        </mxCell>
      </root>
    </mxGraphModel>
  </diagram>
</mxfile>
